<svg xmlns="http://www.w3.org/2000/svg" width="128" height="128" viewBox="0 0 128 128">
  <g fill="none" fill-rule="evenodd">
    <path fill="#FF300A" d="M24,128 L104,128 C117.254834,128 128,117.254834 128,104 L128,24 C128,10.745166 117.254834,-2.4348735e-15 104,0 L24,0 C10.745166,2.4348735e-15 -1.623249e-15,10.745166 0,24 L0,104 C1.623249e-15,117.254834 10.745166,128 24,128 Z"/>
    <path fill="#EBF4FE" d="M72.6946771,45.1311095 C72.656954,41.9363519 73.0234391,35.0003066 68.3704732,35.0003066 C63.7163642,35.0003066 64.0833065,41.9358842 64.0453549,45.1311095 C64.0453549,48.5566866 64.7794682,53.0725177 63.9710519,56.409462 C63.1592063,59.7611395 60.8377531,62.0129747 58.6754226,64.5003066 C56.513092,66.9874047 54.1916388,69.2394737 53.3797932,72.5911512 C52.5711484,75.9280955 53.3052616,80.4439266 53.3052616,83.8695037 C53.3432133,87.064729 52.9767282,94.0003066 57.6301513,94.0003066 C62.2835745,94.0003066 61.9166321,87.0642613 61.9545838,83.8695037 C61.9545838,80.4439266 61.2204705,75.9280955 62.0288868,72.5911512 C62.840961,69.2394737 65.1624142,66.9874047 67.3247447,64.5003066 C69.4870753,62.0129747 71.8082999,59.7611395 72.6203741,56.409462 C73.4287903,53.0725177 72.6946771,48.5566866 72.6946771,45.1311095 M90.7372166,43.0985798 C90.7372166,46.6301578 91.3284792,50.8171785 90.7372166,54.2962095 C90.061227,58.2737396 88.0021992,60.5790655 85.3729193,63.5003066 C82.7436393,66.4215497 80.6846115,68.7266432 80.0086219,72.7044058 C79.4173593,76.1834368 80.0086219,80.3704574 80.0086219,83.9020354 C80.0373971,98.0967051 73.8660229,110.070217 58.635931,110.000307 C43.4768637,109.930014 37.1360353,98.210867 37.2627834,83.9020354 C37.2627834,80.3704574 36.6715208,76.1834368 37.2627834,72.7044058 C37.938773,68.7266432 39.9975725,66.4215497 42.6268524,63.5003066 C45.2563607,60.5790655 47.3151601,58.2737396 47.9911498,54.2962095 C48.5824123,50.8171785 47.9911498,46.6301578 47.9911498,43.0985798 C47.8644017,28.7897483 54.2054584,17.0706011 69.3645258,17.0003066 C84.5943893,16.9301657 90.7657635,28.9039101 90.7372166,43.0985798"/>
  </g>
</svg>
