<svg width="460" height="149" viewBox="0 0 460 149" fill="none" xmlns="http://www.w3.org/2000/svg">
<g clip-path="url(#clip0_210_6)">
<path d="M60.613 117.081C60.613 136.012 50.5351 148.521 33.173 148.521H27.9662C9.7242 148.521 0 137.228 0 117.081V61.5112C0 41.5548 7.81929 28.5196 27.7848 28.5196H33.0007C53.3199 28.5196 60.613 41.5366 60.613 61.3388V117.081ZM36.4749 59.6063C36.4749 53.8733 34.5609 51.0885 30.3972 51.0885C25.8617 51.0885 24.1382 53.8733 24.1382 59.6063V117.779C24.1382 121.77 25.7075 125.417 30.5696 125.417C35.2593 125.417 36.4749 121.789 36.4749 117.779V59.6063Z" fill="#EE4530"/>
<path d="M71.0625 30.0797H94.856V117.398C94.856 122.433 96.5886 125.381 100.589 125.381C104.589 125.381 106.14 122.433 106.14 117.398V30.0435H129.934V116.527C129.934 137.717 119.511 148.485 103.192 148.485H97.5047C80.6597 148.485 71.1078 137.717 71.1078 116.527L71.0625 30.0797Z" fill="#EE4530"/>
<path d="M194.747 30.0798V52.8302H178.238V146.607H155.152V52.8302H138.651V30.0798H194.747Z" fill="#EE4530"/>
<path d="M226.732 16.8723V108.13L251.224 93.9879V119.267L203.637 146.743V30.2159L226.732 16.8723Z" fill="#EE4530"/>
<path d="M320.908 88.5703C320.908 107.502 310.839 120.002 293.468 120.002H288.261C270.028 120.002 260.304 108.717 260.304 88.5703V33.037C260.304 13.0806 268.114 0.0454102 288.088 0.0454102H293.295C313.615 0.0454102 320.908 13.0715 320.908 32.8646V88.5703ZM296.77 31.0867C296.77 25.3538 294.865 22.578 290.692 22.578C286.156 22.578 284.442 25.3538 284.442 31.0867V89.2778C284.442 93.2691 286.002 96.9157 290.864 96.9157C295.554 96.9157 296.77 93.2872 296.77 89.2778V31.0867Z" fill="#EE4530"/>
<path d="M331.367 1.56024H355.124V88.9149C355.124 93.9493 356.866 96.9065 360.857 96.9065C364.848 96.9065 366.418 93.9493 366.418 88.9149V1.56024H390.211V88.0441C390.211 109.234 379.789 120.002 363.461 120.002H357.737C340.892 120.002 331.34 109.234 331.34 88.0441L331.367 1.56024Z" fill="#EE4530"/>
<path d="M401.206 1.5603H434.043C451.279 1.5603 459.225 9.55194 459.225 29.1727V89.4411C459.225 107.846 452.966 118.088 434.043 118.088H401.206V1.5603ZM424.31 96.5347H428.846C434.062 96.5347 435.622 93.7499 435.622 87.4636V30.6785C435.622 24.4195 433.889 21.9884 429.544 21.9884H424.337L424.31 96.5347Z" fill="#EE4530"/>
</g>
<defs>
<clipPath id="clip0_210_6">
<rect width="459.206" height="148.521" fill="white"/>
</clipPath>
</defs>
</svg>
