<svg xmlns="http://www.w3.org/2000/svg" width="110" height="48" viewBox="0 0 110 48">
  <path fill="currentColor" d="M55.043 10.503l-.031 21.738 3.91-4.061v6.089l-8.656 8.722V15.158l4.777-4.655zm-29.496 4.571v19.632c0 2.336.172 3.023 1.303 3.023 1.092 0 1.293-.64 1.305-2.787V15.074h5.148l.005 19.973c0 5.523-2.3 7.825-6.454 7.825-4.153 0-6.45-2.302-6.45-7.825V15.074h5.143zm-13.999-.026c4.154 0 6.452 2.273 6.452 7.732v12.357c0 5.466-2.3 7.733-6.452 7.733-4.15 0-6.453-2.274-6.453-7.733V22.78c0-5.463 2.3-7.732 6.453-7.732zm36.381.026v5.15h-3.535V42.72h-5.148V20.224H35.71v-5.15h12.22zm-36.38 5.055c-1.132 0-1.306.679-1.306 2.987v11.676c0 2.31.172 2.987 1.305 2.987 1.095 0 1.291-.632 1.303-2.754V23.116c0-2.308-.171-2.987-1.303-2.987zm56.18-15.12c4.153 0 6.453 2.29 6.453 7.792v12.438c0 5.502-2.3 7.79-6.453 7.79-4.154 0-6.454-2.288-6.454-7.79V12.801c0-5.501 2.3-7.792 6.454-7.792zm14 .212v19.64c0 2.334.172 3.02 1.306 3.02 1.133 0 1.303-.686 1.303-3.02V5.222h5.148l.002 19.983c0 5.523-2.3 7.825-6.451 7.825s-6.456-2.297-6.456-7.825V5.221h5.148zm15.308 0c5.87 0 7.823 1.988 7.823 7.565v12.617c0 5.51-1.957 7.556-7.827 7.556h-5.146V5.22h5.15zM67.73 10.134c-1.095 0-1.293.639-1.305 2.773l-.001 11.99c0 2.324.172 3.007 1.306 3.007 1.133 0 1.303-.683 1.303-3.007V13.141c0-2.322-.17-3.007-1.303-3.007zm29.304.294v17.328c1.988 0 2.678-.345 2.678-2.355V12.786c0-2.01-.688-2.358-2.678-2.358z"/>
</svg>
